<svg width="22" height="22" viewBox="0 0 22 22" fill="none" xmlns="http://www.w3.org/2000/svg">
<path d="M11 0C8.09351 0.035066 5.31595 1.20525 3.2606 3.2606C1.20525 5.31595 0.035066 8.09351 0 11C0.035066 13.9065 1.20525 16.6841 3.2606 18.7394C5.31595 20.7948 8.09351 21.9649 11 22C13.9065 21.9649 16.6841 20.7948 18.7394 18.7394C20.7948 16.6841 21.9649 13.9065 22 11C21.9649 8.09351 20.7948 5.31595 18.7394 3.2606C16.6841 1.20525 13.9065 0.035066 11 0ZM17.2857 11.7857H11.7857V17.2857H10.2143V11.7857H4.71429V10.2143H10.2143V4.71429H11.7857V10.2143H17.2857V11.7857Z" fill="url(#paint0_linear_97_787)"/>
<defs>
<linearGradient id="paint0_linear_97_787" x1="11" y1="0" x2="11" y2="22" gradientUnits="userSpaceOnUse">
<stop stop-color="#F1058C"/>
<stop offset="1" stop-color="#F9B13E"/>
</linearGradient>
</defs>
</svg>
