<svg width="375" height="314" viewBox="0 0 375 314" fill="none" xmlns="http://www.w3.org/2000/svg">
<rect x="0.5" y="0.5" width="374" height="313" rx="9.5" fill="white" fill-opacity="0.04" stroke="white" stroke-dasharray="7 7"/>
<path d="M156.111 131.588C153.695 131.588 151.377 132.543 149.669 134.242C147.96 135.94 147 138.245 147 140.647V185.941C147 188.344 147.96 190.648 149.669 192.347C151.377 194.046 153.695 195 156.111 195H219.889C222.305 195 224.623 194.046 226.331 192.347C228.04 190.648 229 188.344 229 185.941V140.647C229 138.245 228.04 135.94 226.331 134.242C224.623 132.543 222.305 131.588 219.889 131.588H156.111ZM156.111 181.412L172.056 161.029L183.444 174.618L199.389 154.235L219.889 181.412H156.111ZM215.333 118C217.75 118 220.067 118.954 221.776 120.653C223.485 122.352 224.444 124.656 224.444 127.059H151.556C151.556 124.656 152.515 122.352 154.224 120.653C155.933 118.954 158.25 118 160.667 118H215.333Z" fill="white"/>
</svg>
