<svg width="20" height="16" viewBox="0 0 20 16" fill="none" xmlns="http://www.w3.org/2000/svg">
<path d="M11 4H19C19.6 4 20 3.6 20 3C20 2.4 19.6 2 19 2L11 2C10.4 2 10 2.4 10 3C10 3.6 10.4 4 11 4ZM19 6H11C10.4 6 10 6.4 10 7C10 7.6 10.4 8 11 8H19C19.6 8 20 7.6 20 7C20 6.4 19.6 6 19 6ZM1 8H7C7.6 8 8 7.6 8 7V1C8 0.4 7.6 0 7 0L1 0C0.4 0 0 0.4 0 1L0 7C0 7.6 0.4 8 1 8ZM19 10H1C0.4 10 0 10.4 0 11C0 11.6 0.4 12 1 12H19C19.6 12 20 11.6 20 11C20 10.4 19.6 10 19 10ZM11 14H1C0.4 14 0 14.4 0 15C0 15.6 0.4 16 1 16H11C11.6 16 12 15.6 12 15C12 14.4 11.6 14 11 14Z" fill="#787E88"/>
</svg>
