<svg width="20" height="20" viewBox="0 0 20 20" fill="none" xmlns="http://www.w3.org/2000/svg">
<path d="M1.33333 11.0833H7.83333C8.12065 11.0833 8.3962 10.9692 8.59937 10.766C8.80253 10.5629 8.91667 10.2873 8.91667 10V1.33333C8.91667 1.04602 8.80253 0.770465 8.59937 0.567301C8.3962 0.364137 8.12065 0.25 7.83333 0.25H1.33333C1.04602 0.25 0.770465 0.364137 0.567301 0.567301C0.364137 0.770465 0.25 1.04602 0.25 1.33333V10C0.25 10.2873 0.364137 10.5629 0.567301 10.766C0.770465 10.9692 1.04602 11.0833 1.33333 11.0833ZM0.25 18.6667C0.25 18.954 0.364137 19.2295 0.567301 19.4327C0.770465 19.6359 1.04602 19.75 1.33333 19.75H7.83333C8.12065 19.75 8.3962 19.6359 8.59937 19.4327C8.80253 19.2295 8.91667 18.954 8.91667 18.6667V14.3333C8.91667 14.046 8.80253 13.7705 8.59937 13.5673C8.3962 13.3641 8.12065 13.25 7.83333 13.25H1.33333C1.04602 13.25 0.770465 13.3641 0.567301 13.5673C0.364137 13.7705 0.25 14.046 0.25 14.3333V18.6667ZM11.0833 18.6667C11.0833 18.954 11.1975 19.2295 11.4006 19.4327C11.6038 19.6359 11.8793 19.75 12.1667 19.75H18.6667C18.954 19.75 19.2295 19.6359 19.4327 19.4327C19.6359 19.2295 19.75 18.954 19.75 18.6667V11.0833C19.75 10.796 19.6359 10.5205 19.4327 10.3173C19.2295 10.1141 18.954 10 18.6667 10H12.1667C11.8793 10 11.6038 10.1141 11.4006 10.3173C11.1975 10.5205 11.0833 10.796 11.0833 11.0833V18.6667ZM12.1667 7.83333H18.6667C18.954 7.83333 19.2295 7.7192 19.4327 7.51603C19.6359 7.31287 19.75 7.03732 19.75 6.75V1.33333C19.75 1.04602 19.6359 0.770465 19.4327 0.567301C19.2295 0.364137 18.954 0.25 18.6667 0.25H12.1667C11.8793 0.25 11.6038 0.364137 11.4006 0.567301C11.1975 0.770465 11.0833 1.04602 11.0833 1.33333V6.75C11.0833 7.03732 11.1975 7.31287 11.4006 7.51603C11.6038 7.7192 11.8793 7.83333 12.1667 7.83333Z" fill="#787E88"/>
</svg>
