<svg width="78" height="25" viewBox="0 0 78 25" fill="none" xmlns="http://www.w3.org/2000/svg">
<rect x="0.855103" y="0.313965" width="76.4928" height="23.7053" rx="11.8527" fill="#0D0D0D" fill-opacity="0.52"/>
<path d="M17.0086 15.6666C16.9493 15.6666 16.8989 15.6459 16.8574 15.6044C16.8159 15.5629 16.7952 15.5125 16.7952 15.4532V9.66337C16.7952 9.59814 16.8159 9.54478 16.8574 9.50328C16.8989 9.46177 16.9493 9.44102 17.0086 9.44102H19.3921C19.8546 9.44102 20.2578 9.51514 20.6017 9.66337C20.9456 9.80566 21.2124 10.025 21.4021 10.3215C21.5918 10.612 21.6867 10.9767 21.6867 11.4154C21.6867 11.8601 21.5918 12.2277 21.4021 12.5182C21.2124 12.8028 20.9456 13.0163 20.6017 13.1586C20.2578 13.3009 19.8546 13.372 19.3921 13.372H18.067V15.4532C18.067 15.5125 18.0462 15.5629 18.0047 15.6044C17.9691 15.6459 17.9187 15.6666 17.8535 15.6666H17.0086ZM18.0492 12.3848H19.3476C19.6915 12.3848 19.9554 12.3048 20.1392 12.1447C20.323 11.9787 20.4149 11.7356 20.4149 11.4154C20.4149 11.119 20.3289 10.8818 20.157 10.7039C19.985 10.5201 19.7153 10.4282 19.3476 10.4282H18.0492V12.3848ZM22.7733 15.6666C22.714 15.6666 22.6636 15.6459 22.6221 15.6044C22.5806 15.5629 22.5599 15.5125 22.5599 15.4532V9.56553C22.5599 9.50624 22.5806 9.45584 22.6221 9.41434C22.6636 9.37284 22.714 9.35208 22.7733 9.35208H23.5115C23.5708 9.35208 23.6212 9.37284 23.6627 9.41434C23.7042 9.45584 23.725 9.50624 23.725 9.56553V15.4532C23.725 15.5125 23.7042 15.5629 23.6627 15.6044C23.6212 15.6459 23.5708 15.6666 23.5115 15.6666H22.7733ZM26.2476 15.7556C25.9393 15.7556 25.6607 15.6963 25.4116 15.5777C25.1626 15.4532 24.964 15.2901 24.8158 15.0885C24.6735 14.881 24.6023 14.6498 24.6023 14.3948C24.6023 13.9798 24.7683 13.6507 25.1004 13.4076C25.4383 13.1586 25.883 12.9926 26.4344 12.9096L27.6529 12.7317V12.5449C27.6529 12.2959 27.5906 12.1032 27.4661 11.9668C27.3416 11.8305 27.1281 11.7623 26.8257 11.7623C26.6123 11.7623 26.4374 11.8068 26.301 11.8957C26.1706 11.9787 26.0727 12.0914 26.0075 12.2337C25.9601 12.3107 25.8919 12.3493 25.803 12.3493H25.1004C25.0351 12.3493 24.9847 12.3315 24.9492 12.2959C24.9195 12.2603 24.9047 12.2129 24.9047 12.1536C24.9106 12.0587 24.9492 11.9431 25.0203 11.8068C25.0915 11.6704 25.2041 11.5399 25.3583 11.4154C25.5124 11.285 25.7111 11.1753 25.9542 11.0864C26.1972 10.9974 26.4907 10.953 26.8346 10.953C27.2082 10.953 27.5224 11.0004 27.7774 11.0953C28.0382 11.1842 28.2458 11.3057 28.3999 11.4599C28.5541 11.6141 28.6667 11.7949 28.7379 12.0024C28.809 12.2099 28.8446 12.4293 28.8446 12.6605V15.4532C28.8446 15.5125 28.8239 15.5629 28.7824 15.6044C28.7409 15.6459 28.6905 15.6666 28.6312 15.6666H27.9108C27.8456 15.6666 27.7922 15.6459 27.7507 15.6044C27.7151 15.5629 27.6973 15.5125 27.6973 15.4532V15.1063C27.6202 15.219 27.5165 15.3257 27.386 15.4265C27.2556 15.5214 27.0955 15.6014 26.9058 15.6666C26.722 15.7259 26.5026 15.7556 26.2476 15.7556ZM26.55 14.9107C26.7576 14.9107 26.9443 14.8662 27.1103 14.7773C27.2823 14.6883 27.4157 14.5519 27.5106 14.3681C27.6114 14.1784 27.6617 13.9412 27.6617 13.6566V13.4699L26.7724 13.6122C26.4226 13.6655 26.1617 13.7515 25.9897 13.8701C25.8178 13.9887 25.7318 14.1339 25.7318 14.3059C25.7318 14.4363 25.7703 14.549 25.8474 14.6438C25.9304 14.7328 26.0342 14.801 26.1587 14.8484C26.2832 14.8899 26.4137 14.9107 26.55 14.9107ZM31.9867 15.7556C31.5598 15.7556 31.1833 15.6755 30.8572 15.5154C30.537 15.3553 30.285 15.1241 30.1012 14.8217C29.9233 14.5134 29.8255 14.1428 29.8077 13.71C29.8018 13.6211 29.7988 13.5055 29.7988 13.3632C29.7988 13.2149 29.8018 13.0934 29.8077 12.9985C29.8255 12.5657 29.9233 12.1981 30.1012 11.8957C30.285 11.5874 30.537 11.3532 30.8572 11.1931C31.1833 11.033 31.5598 10.953 31.9867 10.953C32.3661 10.953 32.6893 11.0063 32.9561 11.113C33.2229 11.2198 33.4423 11.3532 33.6142 11.5133C33.7862 11.6733 33.9136 11.8423 33.9966 12.0202C34.0856 12.1921 34.133 12.3493 34.1389 12.4916C34.1449 12.5568 34.1241 12.6102 34.0767 12.6517C34.0352 12.6872 33.9848 12.705 33.9255 12.705H33.1429C33.0836 12.705 33.0361 12.6902 33.0006 12.6605C32.9709 12.6309 32.9413 12.5864 32.9116 12.5271C32.8227 12.29 32.7041 12.124 32.5559 12.0291C32.4136 11.9283 32.2298 11.8779 32.0045 11.8779C31.708 11.8779 31.4708 11.9728 31.293 12.1625C31.121 12.3463 31.0291 12.6398 31.0173 13.043C31.0054 13.2683 31.0054 13.4758 31.0173 13.6655C31.0291 14.0747 31.121 14.3711 31.293 14.5549C31.4708 14.7387 31.708 14.8306 32.0045 14.8306C32.2357 14.8306 32.4225 14.7832 32.5648 14.6883C32.7071 14.5875 32.8227 14.4185 32.9116 14.1814C32.9413 14.1221 32.9709 14.0776 33.0006 14.048C33.0361 14.0183 33.0836 14.0035 33.1429 14.0035H33.9255C33.9848 14.0035 34.0352 14.0243 34.0767 14.0658C34.1241 14.1013 34.1449 14.1517 34.1389 14.2169C34.133 14.3237 34.1034 14.4452 34.05 14.5816C34.0026 14.712 33.9225 14.8484 33.8099 14.9907C33.7032 15.1271 33.5668 15.2546 33.4008 15.3731C33.2348 15.4858 33.0332 15.5777 32.796 15.6488C32.5648 15.72 32.295 15.7556 31.9867 15.7556ZM37.0587 15.7556C36.4005 15.7556 35.8788 15.5658 35.4934 15.1864C35.108 14.8069 34.9004 14.2673 34.8708 13.5677C34.8649 13.5084 34.8619 13.4343 34.8619 13.3454C34.8619 13.2505 34.8649 13.1764 34.8708 13.123C34.8945 12.6783 34.9953 12.2929 35.1732 11.9668C35.357 11.6407 35.609 11.3917 35.9292 11.2198C36.2493 11.0419 36.6258 10.953 37.0587 10.953C37.5389 10.953 37.9421 11.0537 38.2682 11.2553C38.5943 11.451 38.8404 11.7267 39.0064 12.0825C39.1724 12.4323 39.2554 12.8384 39.2554 13.3009V13.4877C39.2554 13.547 39.2347 13.5974 39.1932 13.6389C39.1516 13.6804 39.0983 13.7011 39.0331 13.7011H36.0803C36.0803 13.7011 36.0803 13.71 36.0803 13.7278C36.0803 13.7456 36.0803 13.7604 36.0803 13.7723C36.0863 13.9798 36.1248 14.1725 36.196 14.3504C36.273 14.5223 36.3827 14.6616 36.525 14.7684C36.6733 14.8751 36.8482 14.9284 37.0498 14.9284C37.2158 14.9284 37.3551 14.9047 37.4678 14.8573C37.5804 14.8039 37.6723 14.7446 37.7435 14.6794C37.8146 14.6142 37.865 14.5608 37.8947 14.5193C37.948 14.4482 37.9895 14.4067 38.0192 14.3948C38.0548 14.377 38.1052 14.3681 38.1704 14.3681H38.9352C38.9945 14.3681 39.042 14.3859 39.0775 14.4215C39.119 14.4571 39.1368 14.5015 39.1309 14.5549C39.125 14.6498 39.0746 14.7654 38.9797 14.9018C38.8908 15.0381 38.7603 15.1715 38.5884 15.302C38.4164 15.4324 38.2 15.5421 37.9391 15.6311C37.6842 15.7141 37.3907 15.7556 37.0587 15.7556ZM36.0803 12.954H38.0459V12.9274C38.0459 12.6961 38.0073 12.4945 37.9302 12.3226C37.8532 12.1506 37.7405 12.0143 37.5923 11.9135C37.4441 11.8127 37.2662 11.7623 37.0587 11.7623C36.8511 11.7623 36.6733 11.8127 36.525 11.9135C36.3768 12.0143 36.2642 12.1506 36.1871 12.3226C36.1159 12.4945 36.0803 12.6961 36.0803 12.9274V12.954ZM43.5748 15.7556C43.2665 15.7556 42.9878 15.6963 42.7388 15.5777C42.4897 15.4532 42.2911 15.2901 42.1429 15.0885C42.0006 14.881 41.9294 14.6498 41.9294 14.3948C41.9294 13.9798 42.0954 13.6507 42.4275 13.4076C42.7654 13.1586 43.2101 12.9926 43.7615 12.9096L44.98 12.7317V12.5449C44.98 12.2959 44.9177 12.1032 44.7932 11.9668C44.6687 11.8305 44.4552 11.7623 44.1529 11.7623C43.9394 11.7623 43.7645 11.8068 43.6281 11.8957C43.4977 11.9787 43.3999 12.0914 43.3346 12.2337C43.2872 12.3107 43.219 12.3493 43.1301 12.3493H42.4275C42.3623 12.3493 42.3119 12.3315 42.2763 12.2959C42.2466 12.2603 42.2318 12.2129 42.2318 12.1536C42.2377 12.0587 42.2763 11.9431 42.3474 11.8068C42.4186 11.6704 42.5312 11.5399 42.6854 11.4154C42.8396 11.285 43.0382 11.1753 43.2813 11.0864C43.5244 10.9974 43.8179 10.953 44.1618 10.953C44.5353 10.953 44.8495 11.0004 45.1045 11.0953C45.3654 11.1842 45.5729 11.3057 45.727 11.4599C45.8812 11.6141 45.9939 11.7949 46.065 12.0024C46.1362 12.2099 46.1717 12.4293 46.1717 12.6605V15.4532C46.1717 15.5125 46.151 15.5629 46.1095 15.6044C46.068 15.6459 46.0176 15.6666 45.9583 15.6666H45.2379C45.1727 15.6666 45.1193 15.6459 45.0778 15.6044C45.0422 15.5629 45.0244 15.5125 45.0244 15.4532V15.1063C44.9474 15.219 44.8436 15.3257 44.7132 15.4265C44.5827 15.5214 44.4226 15.6014 44.2329 15.6666C44.0491 15.7259 43.8297 15.7556 43.5748 15.7556ZM43.8772 14.9107C44.0847 14.9107 44.2714 14.8662 44.4375 14.7773C44.6094 14.6883 44.7428 14.5519 44.8377 14.3681C44.9385 14.1784 44.9889 13.9412 44.9889 13.6566V13.4699L44.0995 13.6122C43.7497 13.6655 43.4888 13.7515 43.3168 13.8701C43.1449 13.9887 43.0589 14.1339 43.0589 14.3059C43.0589 14.4363 43.0975 14.549 43.1745 14.6438C43.2576 14.7328 43.3613 14.801 43.4858 14.8484C43.6103 14.8899 43.7408 14.9107 43.8772 14.9107ZM51.9064 15.7556C51.5626 15.7556 51.275 15.6963 51.0438 15.5777C50.8184 15.4591 50.6317 15.3079 50.4834 15.1241V15.4532C50.4834 15.5125 50.4627 15.5629 50.4212 15.6044C50.3856 15.6459 50.3352 15.6666 50.27 15.6666H49.5674C49.5081 15.6666 49.4577 15.6459 49.4162 15.6044C49.3747 15.5629 49.3539 15.5125 49.3539 15.4532V9.56553C49.3539 9.50624 49.3747 9.45584 49.4162 9.41434C49.4577 9.37284 49.5081 9.35208 49.5674 9.35208H50.3234C50.3886 9.35208 50.439 9.37284 50.4746 9.41434C50.5161 9.45584 50.5368 9.50624 50.5368 9.56553V11.5399C50.685 11.368 50.8688 11.2287 51.0882 11.1219C51.3135 11.0093 51.5863 10.953 51.9064 10.953C52.2207 10.953 52.4934 11.0063 52.7247 11.113C52.9559 11.2198 53.1486 11.371 53.3028 11.5666C53.4628 11.7564 53.5844 11.9787 53.6674 12.2337C53.7504 12.4886 53.7949 12.7643 53.8008 13.0608C53.8067 13.1675 53.8097 13.2653 53.8097 13.3543C53.8097 13.4373 53.8067 13.5321 53.8008 13.6389C53.7889 13.9472 53.7415 14.2318 53.6585 14.4927C53.5755 14.7476 53.4569 14.97 53.3028 15.1597C53.1486 15.3494 52.9559 15.4976 52.7247 15.6044C52.4934 15.7052 52.2207 15.7556 51.9064 15.7556ZM51.5774 14.8039C51.8323 14.8039 52.031 14.7506 52.1733 14.6438C52.3156 14.5312 52.4164 14.3859 52.4756 14.2081C52.5409 14.0302 52.5794 13.8345 52.5913 13.6211C52.6031 13.4432 52.6031 13.2653 52.5913 13.0874C52.5794 12.874 52.5409 12.6783 52.4756 12.5005C52.4164 12.3226 52.3156 12.1803 52.1733 12.0736C52.031 11.9609 51.8323 11.9046 51.5774 11.9046C51.3402 11.9046 51.1475 11.9579 50.9993 12.0647C50.8511 12.1714 50.7384 12.3078 50.6613 12.4738C50.5842 12.6339 50.5427 12.8028 50.5368 12.9807C50.5309 13.0874 50.5279 13.2031 50.5279 13.3276C50.5279 13.4462 50.5309 13.5588 50.5368 13.6655C50.5487 13.8493 50.5872 14.0302 50.6524 14.2081C50.7236 14.38 50.8333 14.5223 50.9815 14.635C51.1357 14.7476 51.3343 14.8039 51.5774 14.8039ZM55.0129 15.6666C54.9536 15.6666 54.9032 15.6459 54.8617 15.6044C54.8202 15.5629 54.7994 15.5125 54.7994 15.4532V11.2553C54.7994 11.196 54.8202 11.1457 54.8617 11.1041C54.9032 11.0626 54.9536 11.0419 55.0129 11.0419H55.751C55.8163 11.0419 55.8666 11.0626 55.9022 11.1041C55.9437 11.1457 55.9645 11.196 55.9645 11.2553V15.4532C55.9645 15.5125 55.9437 15.5629 55.9022 15.6044C55.8666 15.6459 55.8163 15.6666 55.751 15.6666H55.0129ZM54.9773 10.277C54.9121 10.277 54.8587 10.2592 54.8172 10.2237C54.7816 10.1822 54.7638 10.1288 54.7638 10.0636V9.42323C54.7638 9.36394 54.7816 9.31355 54.8172 9.27204C54.8587 9.23054 54.9121 9.20979 54.9773 9.20979H55.7866C55.8518 9.20979 55.9052 9.23054 55.9467 9.27204C55.9882 9.31355 56.0089 9.36394 56.0089 9.42323V10.0636C56.0089 10.1288 55.9882 10.1822 55.9467 10.2237C55.9052 10.2592 55.8518 10.277 55.7866 10.277H54.9773ZM58.8609 15.7556C58.5526 15.7556 58.2799 15.7052 58.0427 15.6044C57.8115 15.4976 57.6188 15.3494 57.4646 15.1597C57.3104 14.97 57.1919 14.7476 57.1089 14.4927C57.0258 14.2318 56.9784 13.9472 56.9666 13.6389C56.9606 13.5321 56.9577 13.4373 56.9577 13.3543C56.9577 13.2653 56.9606 13.1675 56.9666 13.0608C56.9784 12.7643 57.0229 12.4886 57.1 12.2337C57.183 11.9787 57.3015 11.7564 57.4557 11.5666C57.6158 11.371 57.8115 11.2198 58.0427 11.113C58.2799 11.0063 58.5526 10.953 58.8609 10.953C59.1811 10.953 59.4509 11.0093 59.6702 11.1219C59.8956 11.2287 60.0823 11.368 60.2305 11.5399V9.56553C60.2305 9.50624 60.2483 9.45584 60.2839 9.41434C60.3254 9.37284 60.3788 9.35208 60.444 9.35208H61.2C61.2593 9.35208 61.3097 9.37284 61.3512 9.41434C61.3927 9.45584 61.4134 9.50624 61.4134 9.56553V15.4532C61.4134 15.5125 61.3927 15.5629 61.3512 15.6044C61.3097 15.6459 61.2593 15.6666 61.2 15.6666H60.4974C60.4321 15.6666 60.3788 15.6459 60.3373 15.6044C60.3017 15.5629 60.2839 15.5125 60.2839 15.4532V15.1241C60.1357 15.3079 59.9459 15.4591 59.7147 15.5777C59.4894 15.6963 59.2048 15.7556 58.8609 15.7556ZM59.19 14.8039C59.439 14.8039 59.6376 14.7476 59.7859 14.635C59.9341 14.5223 60.0438 14.38 60.1149 14.2081C60.1861 14.0302 60.2246 13.8493 60.2305 13.6655C60.2365 13.5588 60.2394 13.4462 60.2394 13.3276C60.2394 13.2031 60.2365 13.0874 60.2305 12.9807C60.2246 12.8028 60.1831 12.6339 60.106 12.4738C60.029 12.3078 59.9163 12.1714 59.7681 12.0647C59.6198 11.9579 59.4271 11.9046 59.19 11.9046C58.941 11.9046 58.7423 11.9609 58.5941 12.0736C58.4518 12.1803 58.348 12.3226 58.2828 12.5005C58.2176 12.6783 58.1791 12.874 58.1672 13.0874C58.1613 13.2653 58.1613 13.4432 58.1672 13.6211C58.1791 13.8345 58.2176 14.0302 58.2828 14.2081C58.348 14.3859 58.4518 14.5312 58.5941 14.6438C58.7423 14.7506 58.941 14.8039 59.19 14.8039Z" fill="white"/>
</svg>
