<svg width="44" height="42" viewBox="0 0 44 42" fill="none" xmlns="http://www.w3.org/2000/svg">
<g filter="url(#filter0_d_52_649)">
<path d="M31.1312 12.8616L31.1304 12.8608C30.549 12.2776 29.8646 11.8153 29.1151 11.4979L29.1138 11.4974C28.3363 11.1669 27.5031 10.998 26.6626 11L26.6602 11C25.4783 11 24.3254 11.331 23.3227 11.9569L23.3226 11.957C23.0826 12.1068 22.8552 12.2709 22.64 12.4495L22.0014 12.9796L21.3627 12.4495C21.1475 12.2709 20.9201 12.1068 20.6801 11.957L20.6801 11.9569C19.6773 11.331 18.5245 11 17.3425 11C16.4894 11 15.6669 11.1667 14.8889 11.4974L14.8878 11.4979C14.1354 11.8166 13.4568 12.275 12.872 12.8611L12.8707 12.8624C12.291 13.4412 11.8267 14.1319 11.5052 14.8961L31.1312 12.8616ZM31.1312 12.8616C31.7105 13.4413 32.1749 14.1322 32.4976 14.8961L31.1312 12.8616ZM16.3096 26.5109L16.3097 26.511C17.5644 27.6966 18.8167 28.7023 19.7704 29.4207C20.2465 29.7793 20.6463 30.065 20.9321 30.2641C21.075 30.3637 21.1892 30.4414 21.2699 30.4957C21.3505 30.5499 21.3914 30.5764 21.3949 30.5787L21.3952 30.5789L21.4032 30.5839L21.411 30.589L22 30.9755L22.589 30.589L22.5892 30.5889C22.6775 30.531 25.172 28.8881 27.6907 26.5107L16.3096 26.5109ZM16.3096 26.5109C14.7949 25.0801 13.5976 23.6894 12.7396 22.3806L16.3096 26.5109ZM32.4985 19.9937L32.4993 19.9915C32.8378 19.0859 33 18.218 33 17.4051V17.4024C33.0024 16.5342 32.8322 15.6923 32.4981 14.8973L32.4985 19.9937ZM32.4985 19.9937C32.2182 20.7491 31.8028 21.5519 31.2606 22.3802L32.4985 19.9937ZM11 17.4051C11 16.5347 11.1707 15.6915 11.5052 14.8962L11.5005 19.991C11.1622 19.0856 11 18.2179 11 17.4051ZM12.7395 22.3805C12.1985 21.5541 11.7847 20.7502 11.5007 19.9915L12.7395 22.3805Z" stroke="#F1028E" stroke-width="2" shape-rendering="crispEdges"/>
</g>
<defs>
<filter id="filter0_d_52_649" x="0" y="0" width="44" height="42" filterUnits="userSpaceOnUse" color-interpolation-filters="sRGB">
<feFlood flood-opacity="0" result="BackgroundImageFix"/>
<feColorMatrix in="SourceAlpha" type="matrix" values="0 0 0 0 0 0 0 0 0 0 0 0 0 0 0 0 0 0 127 0" result="hardAlpha"/>
<feOffset/>
<feGaussianBlur stdDeviation="5"/>
<feComposite in2="hardAlpha" operator="out"/>
<feColorMatrix type="matrix" values="0 0 0 0 0 0 0 0 0 0 0 0 0 0 0 0 0 0 0.35 0"/>
<feBlend mode="normal" in2="BackgroundImageFix" result="effect1_dropShadow_52_649"/>
<feBlend mode="normal" in="SourceGraphic" in2="effect1_dropShadow_52_649" result="shape"/>
</filter>
</defs>
</svg>
