<svg width="20" height="20" viewBox="0 0 20 20" fill="none" xmlns="http://www.w3.org/2000/svg">
<path d="M10 0C8.02219 0 6.08879 0.58649 4.4443 1.6853C2.79981 2.78412 1.51809 4.3459 0.761209 6.17317C0.00433284 8.00043 -0.193701 10.0111 0.192152 11.9509C0.578004 13.8907 1.53041 15.6725 2.92894 17.0711C4.32746 18.4696 6.10929 19.422 8.0491 19.8079C9.98891 20.1937 11.9996 19.9957 13.8268 19.2388C15.6541 18.4819 17.2159 17.2002 18.3147 15.5557C19.4135 13.9112 20 11.9778 20 10C20 8.68678 19.7413 7.38642 19.2388 6.17317C18.7363 4.95991 17.9997 3.85752 17.0711 2.92893C16.1425 2.00035 15.0401 1.26375 13.8268 0.761205C12.6136 0.258658 11.3132 0 10 0ZM11 10C10.9996 10.2039 10.9368 10.4028 10.82 10.57L9.13 13.5C9.06434 13.6136 8.97695 13.7131 8.87282 13.793C8.76869 13.8728 8.64985 13.9313 8.5231 13.9652C8.26711 14.0337 7.99442 13.9976 7.765 13.865C7.53559 13.7324 7.36825 13.5141 7.2998 13.2581C7.23135 13.0021 7.2674 12.7294 7.4 12.5L9 9.73V5C9 4.73478 9.10536 4.48043 9.2929 4.29289C9.48043 4.10536 9.73479 4 10 4C10.2652 4 10.5196 4.10536 10.7071 4.29289C10.8946 4.48043 11 4.73478 11 5V10Z" fill="#787E88"/>
</svg>
