<svg width="23" height="24" viewBox="0 0 23 24" fill="none" xmlns="http://www.w3.org/2000/svg">
<path d="M17.4162 24H13.2466V19.3951C13.2466 19.0574 12.9837 18.7855 12.6574 18.7855H10.5454C10.219 18.7855 9.95616 19.0621 9.95616 19.3951V24H5.45113C4.2093 24 3.19862 22.9543 3.19862 21.6694V14.0633L0.65604 13.2427L0.452089 13.0317C-0.150696 12.408 -0.150696 11.3998 0.452089 10.7761L10.4139 0.468933C10.704 0.168816 11.0892 0 11.5017 0C11.9141 0 12.2993 0.164127 12.5894 0.468933L22.5512 10.7808C22.8413 11.0809 23.0044 11.4842 22.9999 11.9062C22.9999 12.3329 22.8367 12.7315 22.5467 13.0317L22.3427 13.2427L19.6597 14.068V21.6694C19.6642 22.9543 18.658 24 17.4162 24Z" fill="url(#paint0_linear_52_1233)"/>
<defs>
<linearGradient id="paint0_linear_52_1233" x1="0.5" y1="13.5" x2="23" y2="13" gradientUnits="userSpaceOnUse">
<stop stop-color="#FF7D05"/>
<stop offset="0.942708" stop-color="#F10788"/>
</linearGradient>
</defs>
</svg>
