<svg width="18" height="16" viewBox="0 0 18 16" fill="none" xmlns="http://www.w3.org/2000/svg">
<path d="M17.9999 7.49128L15.307 6.15459L17.9968 4.50475L9.00007 0L0.00309978 4.50462L2.69286 6.15446L0 7.49141L2.69286 9.14323L0 10.4798L8.99993 16L18 10.4798L15.307 9.1431L18 7.49128H17.9999ZM15.9193 4.59174L14.1342 5.68678L12.5723 4.77262L14.2412 3.75173L15.9193 4.59174ZM8.03026 6.36473L6.49883 7.30166L4.75478 6.23179L6.3306 5.32504L8.03026 6.36473ZM7.32999 4.74984L8.94442 3.82072L10.6024 4.79115L8.99993 5.77153L7.32999 4.74984ZM8.99993 6.95793L10.5325 7.89553L8.99993 8.83564L7.46737 7.89553L8.99993 6.95793ZM9.96974 6.36459L11.5936 5.37111L13.1567 6.28607L11.5012 7.3014L9.9696 6.36459H9.96974ZM13.1746 3.21732L11.5811 4.19226L9.95368 3.2397L11.4728 2.36526L13.1746 3.21732ZM8.99993 1.12721L10.3893 1.82277L8.94906 2.65166L7.56868 1.84382L8.99993 1.12721ZM6.48981 2.38406L7.93966 3.23268L6.34779 4.14896L4.82537 3.21745L6.48981 2.38406ZM2.08066 4.59161L3.75876 3.75146L5.34839 4.72402L3.77384 5.63011L2.08066 4.59161ZM2.08376 7.58211L3.70677 6.77639L8.99993 10.0231L14.2932 6.77639L15.9161 7.58211L8.99993 11.824L2.0839 7.58211H2.08376ZM15.9161 10.5706L8.99993 14.8125L2.0839 10.5705L3.70691 9.7649L9.00007 13.0116L14.2934 9.7649L15.9162 10.5705L15.9161 10.5706Z" fill="#787E88"/>
</svg>
