<svg width="16" height="18" viewBox="0 0 16 18" fill="none" xmlns="http://www.w3.org/2000/svg">
<path d="M15.2766 4.01973C14.8035 3.4001 14.2838 2.81541 13.7217 2.27045C13.1082 1.674 12.4775 1.13032 11.9309 0.740864C10.9992 0.0769091 10.5571 0 10.2981 0H1.34105C0.544421 0 0 0.630818 0 1.40482V16.5641C0 17.3377 0.544421 18 1.34105 18H14.6316C15.4282 18 16 17.3377 16 16.5637V5.61559C16 5.364 15.9596 4.92505 15.2766 4.01973ZM12.0316 14.7273H3.94147C3.62232 14.7273 3.36337 14.4237 3.36337 14.1136C3.36337 13.8035 3.6219 13.5 3.94147 13.5H12.0316C12.3503 13.5 12.6093 13.8035 12.6093 14.1136C12.6093 14.4237 12.3507 14.7273 12.0316 14.7273ZM12.0316 12.2727H3.94147C3.62232 12.2727 3.36337 11.9692 3.36337 11.6591C3.36337 11.3486 3.6219 11.0455 3.94147 11.0455H12.0316C12.3503 11.0455 12.6093 11.349 12.6093 11.6591C12.6093 11.9692 12.3507 12.2727 12.0316 12.2727ZM12.0316 10.2273H3.94147C3.62232 10.2273 3.36337 9.92373 3.36337 9.61364C3.36337 9.30355 3.6219 9 3.94147 9H12.0316C12.3503 9 12.6093 9.30355 12.6093 9.61364C12.6093 9.92373 12.3507 10.2273 12.0316 10.2273ZM11.3684 4.5V1.79182C11.7895 2.10436 12.368 2.45455 12.9213 2.86364H12.9225C13.4771 3.68182 13.9116 4.09091 14.2333 4.5H11.3684Z" fill="#787E88"/>
</svg>
