<svg width="20" height="24" viewBox="0 0 20 24" fill="none" xmlns="http://www.w3.org/2000/svg">
<path d="M11.5713 1.71429L10.2856 0.428574L8.9999 0.857145L8.14275 1.71429L6.85704 2.57143L4.28561 4.28572L3.42847 6.42857L2.57132 12.4286L2.14275 15L0.857038 16.2857L0.428467 18.4286L0.857038 19.2857L2.14275 19.7143H16.7142L18.4285 19.2857L19.2856 18.4286L18.4285 17.1429L17.5713 14.5714L16.7142 12.8571C18.0856 5.65715 13.857 2.42857 11.5713 1.71429Z" fill="url(#paint0_linear_52_1230)"/>
<path d="M19.2377 16.8533L18.2384 15.28C17.9953 14.88 17.7522 14.1067 17.6982 13.6267L17.2661 8.10667C17.023 5.06667 14.8623 2.4 11.8914 1.38667C11.6213 0.56 10.8111 0 9.8658 0C8.94752 0 8.13727 0.586667 7.84018 1.38667C4.86927 2.4 2.70861 5.06667 2.46554 8.10667L2.03341 13.6267C1.97939 14.1333 1.73631 14.9067 1.49324 15.28L0.493935 16.8533C-0.0462305 17.7067 -0.154264 18.56 0.223852 19.2267C0.601968 19.8933 1.38521 20.2667 2.41152 20.2667H17.3201C18.3464 20.2667 19.1026 19.8933 19.4807 19.2267C19.8589 18.5867 19.7778 17.7333 19.2377 16.8533ZM18.5355 18.7467C18.3734 19.0667 17.9143 19.2267 17.3201 19.2267H2.41152C1.79033 19.2267 1.3582 19.04 1.16914 18.72C1.00709 18.4 1.08812 17.92 1.41222 17.4133L2.41152 15.84C2.73562 15.3067 3.03271 14.3733 3.11374 13.7067L3.54587 8.18667C3.76193 5.49333 5.78755 3.09333 8.46137 2.32C8.65043 2.26667 8.81248 2.08 8.83949 1.89333C8.92051 1.44 9.35264 1.06667 9.8658 1.06667C10.379 1.06667 10.8381 1.44 10.8921 1.89333C10.9191 2.10667 11.0812 2.26667 11.2702 2.32C13.944 3.09333 15.9697 5.52 16.1857 8.18667L16.6179 13.7067C16.6719 14.3733 16.996 15.3067 17.3201 15.84L18.3194 17.4133C18.6435 17.9467 18.7245 18.4267 18.5355 18.7467ZM12.8907 21.6C12.7557 21.84 11.4323 24 9.8658 24C8.29932 24 6.97592 21.84 6.84088 21.6C6.67883 21.3333 6.78686 21.0133 7.02993 20.88C7.30002 20.72 7.62411 20.8267 7.75916 21.0667C8.13727 21.68 9.10957 22.9333 9.8658 22.9333C10.622 22.9333 11.5943 21.68 11.9724 21.0667C12.1345 20.8 12.4586 20.72 12.7017 20.88C12.9718 21.0133 13.0528 21.36 12.8907 21.6Z" fill="url(#paint1_linear_52_1230)"/>
<defs>
<linearGradient id="paint0_linear_52_1230" x1="2.57132" y1="11.5714" x2="17.5713" y2="11.5714" gradientUnits="userSpaceOnUse">
<stop stop-color="#FF7C05"/>
<stop offset="1" stop-color="#F10788"/>
</linearGradient>
<linearGradient id="paint1_linear_52_1230" x1="2.57143" y1="12" x2="17.1429" y2="12" gradientUnits="userSpaceOnUse">
<stop stop-color="#FF7D05"/>
<stop offset="1" stop-color="#F10788"/>
</linearGradient>
</defs>
</svg>
