<svg width="21" height="19" viewBox="0 0 21 19" fill="none" xmlns="http://www.w3.org/2000/svg">
<path d="M18.725 7.79756H16.1115L13.0615 3.59137C13.1539 3.31918 13.2028 3.03376 13.2064 2.74592C13.2064 2.01765 12.9212 1.31922 12.4135 0.80426C11.9058 0.289301 11.2173 0 10.4994 0C9.78141 0 9.09287 0.289301 8.5852 0.80426C8.07754 1.31922 7.79233 2.01765 7.79233 2.74592C7.79233 3.04311 7.8508 3.32317 7.9372 3.59137L4.88718 7.79756H2.27371C1.67069 7.79756 1.09236 8.04055 0.665955 8.47308C0.239551 8.90561 0 9.49225 0 10.1039V16.6936C0 17.3053 0.239551 17.8919 0.665955 18.3245C1.09236 18.757 1.67069 19 2.27371 19H18.7263C19.3293 19 19.9076 18.757 20.334 18.3245C20.7604 17.8919 21 17.3053 21 16.6936V10.1039C20.9995 9.49218 20.7596 8.90565 20.333 8.4732C19.9064 8.04074 19.3281 7.79773 18.725 7.79756ZM6.02014 14.5124C6.12538 14.6824 6.17735 14.9335 6.17735 15.2643V16.086H5.33348V15.4179C5.33348 15.2637 5.32568 15.1358 5.31204 15.0343C5.30051 14.9404 5.26161 14.852 5.2003 14.7806C5.14452 14.7159 5.07066 14.67 4.98852 14.6488C4.88123 14.6268 4.77184 14.6171 4.66241 14.6198H3.48982V16.0867H2.65115V11.6519H4.80078C5.36661 11.6519 5.74989 11.7639 5.95063 11.9886C6.12603 12.1889 6.21308 12.5158 6.21308 12.9698C6.21308 13.4627 6.14812 13.7863 6.02014 13.9405C5.9045 14.0834 5.71156 14.1803 5.43872 14.2304V14.2475C5.69402 14.2719 5.88826 14.3602 6.02014 14.5124ZM8.68948 4.77619C9.18364 5.23497 9.82881 5.49017 10.4987 5.49183C11.1682 5.49022 11.813 5.235 12.3066 4.77619L14.4978 7.79822H6.49827L8.68948 4.77619ZM9.84322 16.086H6.82958V11.6512H9.83153V12.3787H7.66955V13.4904H9.72109V14.1816H7.66955V15.3585H9.84322V16.086ZM14.5576 16.086H13.1531L11.299 12.3794H11.2646L11.3114 14.2185L11.3341 16.0867H10.489V11.6519H11.8824L13.7592 15.3592H13.7819L13.7124 11.6519H14.5576V16.086ZM18.3469 12.3787H17.0593V16.0854H16.2194V12.3787H14.9428V11.6512H18.3469V12.3787ZM5.26916 12.5375C5.33673 12.6377 5.36921 12.8268 5.36921 13.1062C5.36921 13.4093 5.32828 13.6143 5.24708 13.721C5.18471 13.7863 5.1139 13.8311 5.0353 13.8554C4.95669 13.8798 4.84366 13.8917 4.69749 13.8917H3.48982V12.3794H4.67345C4.82677 12.3794 4.95149 12.3886 5.04634 12.4077C5.13343 12.4228 5.2124 12.4688 5.26916 12.5375Z" fill="white"/>
</svg>
