<svg width="19" height="17" viewBox="0 0 19 17" fill="none" xmlns="http://www.w3.org/2000/svg">
<path d="M16.9417 6.97676H14.5771L11.8175 3.21333C11.9011 2.96979 11.9454 2.71442 11.9486 2.45687C11.9486 1.80527 11.6906 1.18035 11.2313 0.719601C10.7719 0.258848 10.149 0 9.49941 0C8.84984 0 8.22688 0.258848 7.76756 0.719601C7.30825 1.18035 7.05021 1.80527 7.05021 2.45687C7.05021 2.72278 7.10311 2.97336 7.18128 3.21333L4.42173 6.97676H2.05717C1.51157 6.97676 0.988324 7.19418 0.60253 7.58118C0.216737 7.96818 0 8.49307 0 9.04037V14.9364C0 15.4837 0.216737 16.0086 0.60253 16.3956C0.988324 16.7826 1.51157 17 2.05717 17H16.9428C17.4884 17 18.0117 16.7826 18.3975 16.3956C18.7833 16.0086 19 15.4837 19 14.9364V9.04037C18.9995 8.49301 18.7825 7.96821 18.3965 7.58128C18.0106 7.19435 17.4873 6.97692 16.9417 6.97676ZM5.44679 12.9848C5.54201 13.1369 5.58903 13.3616 5.58903 13.6575V14.3928H4.82553V13.7949C4.82553 13.657 4.81847 13.5426 4.80613 13.4518C4.7957 13.3677 4.7605 13.2887 4.70504 13.2248C4.65457 13.1669 4.58774 13.1258 4.51343 13.1069C4.41635 13.0871 4.31738 13.0784 4.21837 13.0809H3.15746V14.3934H2.39866V10.4253H4.34356C4.8555 10.4253 5.20228 10.5256 5.3839 10.7266C5.5426 10.9059 5.62136 11.1983 5.62136 11.6046C5.62136 12.0456 5.56258 12.3351 5.44679 12.473C5.34217 12.601 5.1676 12.6876 4.92074 12.7325V12.7478C5.15174 12.7696 5.32748 12.8486 5.44679 12.9848ZM7.86191 4.27344C8.30901 4.68392 8.89273 4.91226 9.49882 4.91374C10.1046 4.9123 10.6879 4.68395 11.1346 4.27344L13.1171 6.97735H5.87938L7.86191 4.27344ZM8.90577 14.3928H6.17914V10.4248H8.89519V11.0757H6.93912V12.0703H8.79527V12.6888H6.93912V13.7419H8.90577V14.3928ZM13.1712 14.3928H11.9004L10.2229 11.0763H10.1918L10.2341 12.7218L10.2547 14.3934H9.49001V10.4253H10.7508L12.4488 13.7424H12.4694L12.4065 10.4253H13.1712V14.3928ZM16.5996 11.0757H15.4346V14.3922H14.6747V11.0757H13.5197V10.4248H16.5996V11.0757ZM4.76734 11.2178C4.82847 11.3074 4.85785 11.4766 4.85785 11.7266C4.85785 11.9978 4.82083 12.1812 4.74735 12.2767C4.69093 12.3351 4.62686 12.3752 4.55574 12.397C4.48463 12.4188 4.38235 12.4294 4.25011 12.4294H3.15746V11.0763H4.22836C4.36707 11.0763 4.47992 11.0845 4.56574 11.1016C4.64453 11.1152 4.71598 11.1563 4.76734 11.2178Z" fill="#787E88"/>
</svg>
