<svg width="46" height="7" viewBox="0 0 46 7" fill="none" xmlns="http://www.w3.org/2000/svg">
<path d="M1.00848 6.66656C0.949186 6.66656 0.898789 6.64581 0.857285 6.60431C0.815781 6.5628 0.795029 6.51241 0.795029 6.45312V0.663304C0.795029 0.598083 0.815781 0.544721 0.857285 0.503217C0.898789 0.461713 0.949186 0.440961 1.00848 0.440961H3.39199C3.85447 0.440961 4.25765 0.515075 4.60154 0.663304C4.94543 0.805604 5.21224 1.02498 5.40198 1.32144C5.59171 1.61197 5.68657 1.97661 5.68657 2.41537C5.68657 2.86005 5.59171 3.22766 5.40198 3.51819C5.21224 3.80279 4.94543 4.01624 4.60154 4.15854C4.25765 4.30084 3.85447 4.37199 3.39199 4.37199H2.06683V6.45312C2.06683 6.51241 2.04608 6.5628 2.00457 6.60431C1.969 6.64581 1.9186 6.66656 1.85338 6.66656H1.00848ZM2.04904 3.38478H3.34753C3.69142 3.38478 3.95526 3.30474 4.13907 3.14465C4.32287 2.97864 4.41477 2.73554 4.41477 2.41537C4.41477 2.11891 4.3288 1.88174 4.15685 1.70387C3.98491 1.52007 3.71513 1.42816 3.34753 1.42816H2.04904V3.38478ZM6.77321 6.66656C6.71391 6.66656 6.66352 6.64581 6.62201 6.60431C6.58051 6.5628 6.55976 6.51241 6.55976 6.45312V0.565473C6.55976 0.506181 6.58051 0.455784 6.62201 0.41428C6.66352 0.372776 6.71391 0.352024 6.77321 0.352024H7.51138C7.57068 0.352024 7.62107 0.372776 7.66258 0.41428C7.70408 0.455784 7.72483 0.506181 7.72483 0.565473V6.45312C7.72483 6.51241 7.70408 6.5628 7.66258 6.60431C7.62107 6.64581 7.57068 6.66656 7.51138 6.66656H6.77321ZM10.2475 6.7555C9.93921 6.7555 9.66054 6.69621 9.41151 6.57763C9.16249 6.45312 8.96386 6.29006 8.81564 6.08847C8.67334 5.88095 8.60219 5.64972 8.60219 5.39476C8.60219 4.97972 8.7682 4.65066 9.10023 4.40756C9.4382 4.15854 9.88288 3.99252 10.4343 3.90951L11.6527 3.73164V3.54487C11.6527 3.29585 11.5905 3.10315 11.466 2.96678C11.3415 2.83041 11.128 2.76222 10.8256 2.76222C10.6122 2.76222 10.4373 2.80669 10.3009 2.89563C10.1704 2.97864 10.0726 3.09129 10.0074 3.23359C9.95996 3.31067 9.89178 3.34921 9.80284 3.34921H9.10023C9.03501 3.34921 8.98462 3.33142 8.94904 3.29585C8.9194 3.26027 8.90457 3.21284 8.90457 3.15355C8.9105 3.05868 8.94904 2.94306 9.02019 2.80669C9.09134 2.67032 9.20399 2.53988 9.35815 2.41537C9.51231 2.28493 9.71094 2.17524 9.95403 2.0863C10.1971 1.99736 10.4906 1.95289 10.8345 1.95289C11.208 1.95289 11.5223 2.00033 11.7772 2.09519C12.0381 2.18413 12.2456 2.30568 12.3998 2.45984C12.554 2.61399 12.6666 2.79483 12.7378 3.00235C12.8089 3.20987 12.8445 3.42925 12.8445 3.66049V6.45312C12.8445 6.51241 12.8237 6.5628 12.7822 6.60431C12.7407 6.64581 12.6903 6.66656 12.631 6.66656H11.9106C11.8454 6.66656 11.7921 6.64581 11.7506 6.60431C11.715 6.5628 11.6972 6.51241 11.6972 6.45312V6.10626C11.6201 6.21891 11.5164 6.32564 11.3859 6.42643C11.2555 6.5213 11.0954 6.60134 10.9057 6.66656C10.7219 6.72586 10.5025 6.7555 10.2475 6.7555ZM10.5499 5.9106C10.7574 5.9106 10.9442 5.86613 11.1102 5.77719C11.2822 5.68826 11.4156 5.55189 11.5104 5.36808C11.6112 5.17835 11.6616 4.94118 11.6616 4.65658V4.46982L10.7723 4.61212C10.4224 4.66548 10.1616 4.75145 9.98961 4.87003C9.81766 4.98862 9.73169 5.13388 9.73169 5.30583C9.73169 5.43627 9.77023 5.54892 9.84731 5.64379C9.93031 5.73272 10.0341 5.80091 10.1586 5.84834C10.2831 5.88985 10.4135 5.9106 10.5499 5.9106ZM15.9865 6.7555C15.5596 6.7555 15.1831 6.67546 14.857 6.51537C14.5369 6.35528 14.2849 6.12405 14.1011 5.82166C13.9232 5.51335 13.8254 5.14277 13.8076 4.70995C13.8017 4.62101 13.7987 4.50539 13.7987 4.36309C13.7987 4.21486 13.8017 4.09332 13.8076 3.99845C13.8254 3.56562 13.9232 3.19801 14.1011 2.89563C14.2849 2.58731 14.5369 2.35311 14.857 2.19302C15.1831 2.03294 15.5596 1.95289 15.9865 1.95289C16.366 1.95289 16.6891 2.00626 16.956 2.11298C17.2228 2.2197 17.4421 2.35311 17.6141 2.5132C17.786 2.67328 17.9135 2.84227 17.9965 3.02014C18.0855 3.19208 18.1329 3.34921 18.1388 3.49151C18.1448 3.55673 18.124 3.61009 18.0766 3.65159C18.0351 3.68717 17.9847 3.70496 17.9254 3.70496H17.1427C17.0834 3.70496 17.036 3.69013 17.0004 3.66049C16.9708 3.63084 16.9411 3.58637 16.9115 3.52708C16.8226 3.28992 16.704 3.1239 16.5557 3.02903C16.4134 2.92824 16.2296 2.87784 16.0043 2.87784C15.7079 2.87784 15.4707 2.97271 15.2928 3.16244C15.1209 3.34624 15.029 3.63974 15.0171 4.04292C15.0053 4.26823 15.0053 4.47575 15.0171 4.66548C15.029 5.07459 15.1209 5.37105 15.2928 5.55485C15.4707 5.73865 15.7079 5.83056 16.0043 5.83056C16.2356 5.83056 16.4223 5.78312 16.5646 5.68826C16.7069 5.58746 16.8226 5.41848 16.9115 5.18131C16.9411 5.12202 16.9708 5.07755 17.0004 5.04791C17.036 5.01826 17.0834 5.00344 17.1427 5.00344H17.9254C17.9847 5.00344 18.0351 5.02419 18.0766 5.0657C18.124 5.10127 18.1448 5.15167 18.1388 5.21689C18.1329 5.32361 18.1032 5.44516 18.0499 5.58153C18.0025 5.71197 17.9224 5.84834 17.8098 5.99064C17.703 6.12701 17.5667 6.25449 17.4006 6.37307C17.2346 6.48573 17.033 6.57763 16.7959 6.64878C16.5646 6.71993 16.2949 6.7555 15.9865 6.7555ZM21.0585 6.7555C20.4004 6.7555 19.8786 6.56577 19.4932 6.1863C19.1078 5.80684 18.9003 5.26729 18.8707 4.56765C18.8648 4.50836 18.8618 4.43424 18.8618 4.3453C18.8618 4.25044 18.8648 4.17632 18.8707 4.12296C18.8944 3.67827 18.9952 3.29288 19.1731 2.96678C19.3569 2.64067 19.6089 2.39165 19.929 2.21971C20.2492 2.04183 20.6257 1.95289 21.0585 1.95289C21.5388 1.95289 21.942 2.05369 22.2681 2.25528C22.5942 2.45094 22.8402 2.72665 23.0063 3.0824C23.1723 3.43222 23.2553 3.83836 23.2553 4.30084V4.4876C23.2553 4.54689 23.2345 4.59729 23.193 4.6388C23.1515 4.6803 23.0982 4.70105 23.0329 4.70105H20.0802C20.0802 4.70105 20.0802 4.70995 20.0802 4.72773C20.0802 4.74552 20.0802 4.76034 20.0802 4.7722C20.0862 4.97972 20.1247 5.17242 20.1958 5.35029C20.2729 5.52224 20.3826 5.66157 20.5249 5.7683C20.6731 5.87502 20.8481 5.92839 21.0496 5.92839C21.2157 5.92839 21.355 5.90467 21.4676 5.85724C21.5803 5.80387 21.6722 5.74458 21.7434 5.67936C21.8145 5.61414 21.8649 5.56078 21.8945 5.51928C21.9479 5.44813 21.9894 5.40662 22.0191 5.39476C22.0546 5.37698 22.105 5.36808 22.1703 5.36808H22.9351C22.9944 5.36808 23.0418 5.38587 23.0774 5.42144C23.1189 5.45702 23.1367 5.50149 23.1308 5.55485C23.1248 5.64972 23.0744 5.76533 22.9796 5.90171C22.8906 6.03808 22.7602 6.17148 22.5883 6.30192C22.4163 6.43236 22.1999 6.54205 21.939 6.63099C21.6841 6.714 21.3906 6.7555 21.0585 6.7555ZM20.0802 3.95398H22.0457V3.9273C22.0457 3.69606 22.0072 3.49447 21.9301 3.32253C21.853 3.15058 21.7404 3.01421 21.5922 2.91342C21.4439 2.81262 21.2661 2.76222 21.0585 2.76222C20.851 2.76222 20.6731 2.81262 20.5249 2.91342C20.3767 3.01421 20.264 3.15058 20.187 3.32253C20.1158 3.49447 20.0802 3.69606 20.0802 3.9273V3.95398ZM27.5746 6.7555C27.2663 6.7555 26.9877 6.69621 26.7386 6.57763C26.4896 6.45312 26.291 6.29006 26.1428 6.08847C26.0005 5.88095 25.9293 5.64972 25.9293 5.39476C25.9293 4.97972 26.0953 4.65066 26.4274 4.40756C26.7653 4.15854 27.21 3.99252 27.7614 3.90951L28.9799 3.73164V3.54487C28.9799 3.29585 28.9176 3.10315 28.7931 2.96678C28.6686 2.83041 28.4551 2.76222 28.1527 2.76222C27.9393 2.76222 27.7644 2.80669 27.628 2.89563C27.4976 2.97864 27.3997 3.09129 27.3345 3.23359C27.2871 3.31067 27.2189 3.34921 27.13 3.34921H26.4274C26.3621 3.34921 26.3117 3.33142 26.2762 3.29585C26.2465 3.26027 26.2317 3.21284 26.2317 3.15355C26.2376 3.05868 26.2762 2.94306 26.3473 2.80669C26.4185 2.67032 26.5311 2.53988 26.6853 2.41537C26.8394 2.28493 27.0381 2.17524 27.2812 2.0863C27.5242 1.99736 27.8177 1.95289 28.1616 1.95289C28.5352 1.95289 28.8494 2.00033 29.1044 2.09519C29.3652 2.18413 29.5728 2.30568 29.7269 2.45984C29.8811 2.61399 29.9937 2.79483 30.0649 3.00235C30.136 3.20987 30.1716 3.42925 30.1716 3.66049V6.45312C30.1716 6.51241 30.1509 6.5628 30.1094 6.60431C30.0679 6.64581 30.0175 6.66656 29.9582 6.66656H29.2378C29.1725 6.66656 29.1192 6.64581 29.0777 6.60431C29.0421 6.5628 29.0243 6.51241 29.0243 6.45312V6.10626C28.9472 6.21891 28.8435 6.32564 28.713 6.42643C28.5826 6.5213 28.4225 6.60134 28.2328 6.66656C28.049 6.72586 27.8296 6.7555 27.5746 6.7555ZM27.877 5.9106C28.0846 5.9106 28.2713 5.86613 28.4373 5.77719C28.6093 5.68826 28.7427 5.55189 28.8376 5.36808C28.9383 5.17835 28.9887 4.94118 28.9887 4.65658V4.46982L28.0994 4.61212C27.7496 4.66548 27.4887 4.75145 27.3167 4.87003C27.1448 4.98862 27.0588 5.13388 27.0588 5.30583C27.0588 5.43627 27.0973 5.54892 27.1744 5.64379C27.2574 5.73272 27.3612 5.80091 27.4857 5.84834C27.6102 5.88985 27.7407 5.9106 27.877 5.9106ZM35.9063 6.7555C35.5624 6.7555 35.2749 6.69621 35.0436 6.57763C34.8183 6.45904 34.6316 6.30785 34.4833 6.12405V6.45312C34.4833 6.51241 34.4626 6.5628 34.4211 6.60431C34.3855 6.64581 34.3351 6.66656 34.2699 6.66656H33.5673C33.508 6.66656 33.4576 6.64581 33.4161 6.60431C33.3746 6.5628 33.3538 6.51241 33.3538 6.45312V0.565473C33.3538 0.506181 33.3746 0.455784 33.4161 0.41428C33.4576 0.372776 33.508 0.352024 33.5673 0.352024H34.3232C34.3885 0.352024 34.4389 0.372776 34.4744 0.41428C34.5159 0.455784 34.5367 0.506181 34.5367 0.565473V2.53988C34.6849 2.36793 34.8687 2.2286 35.0881 2.12187C35.3134 2.00922 35.5861 1.95289 35.9063 1.95289C36.2206 1.95289 36.4933 2.00626 36.7245 2.11298C36.9558 2.2197 37.1485 2.3709 37.3026 2.56656C37.4627 2.75629 37.5843 2.97864 37.6673 3.23359C37.7503 3.48854 37.7948 3.76425 37.8007 4.0607C37.8066 4.16743 37.8096 4.26526 37.8096 4.3542C37.8096 4.43721 37.8066 4.53207 37.8007 4.6388C37.7888 4.94711 37.7414 5.23171 37.6584 5.49259C37.5754 5.74755 37.4568 5.96989 37.3026 6.15962C37.1485 6.34936 36.9558 6.49758 36.7245 6.60431C36.4933 6.7051 36.2206 6.7555 35.9063 6.7555ZM35.5773 5.80387C35.8322 5.80387 36.0308 5.75051 36.1731 5.64379C36.3154 5.53113 36.4162 5.38587 36.4755 5.20799C36.5407 5.03012 36.5793 4.83446 36.5911 4.62101C36.603 4.44313 36.603 4.26526 36.5911 4.08739C36.5793 3.87394 36.5407 3.67828 36.4755 3.5004C36.4162 3.32253 36.3154 3.18023 36.1731 3.0735C36.0308 2.96085 35.8322 2.90452 35.5773 2.90452C35.3401 2.90452 35.1474 2.95788 34.9992 3.06461C34.8509 3.17133 34.7383 3.3077 34.6612 3.47372C34.5841 3.63381 34.5426 3.80279 34.5367 3.98066C34.5308 4.08739 34.5278 4.203 34.5278 4.32752C34.5278 4.4461 34.5308 4.55875 34.5367 4.66548C34.5485 4.84928 34.5871 5.03012 34.6523 5.20799C34.7235 5.37994 34.8331 5.52224 34.9814 5.63489C35.1355 5.74755 35.3342 5.80387 35.5773 5.80387ZM39.0127 6.66656C38.9534 6.66656 38.903 6.64581 38.8615 6.60431C38.82 6.5628 38.7993 6.51241 38.7993 6.45312V2.25528C38.7993 2.19599 38.82 2.14559 38.8615 2.10409C38.903 2.06258 38.9534 2.04183 39.0127 2.04183H39.7509C39.8161 2.04183 39.8665 2.06258 39.9021 2.10409C39.9436 2.14559 39.9644 2.19599 39.9644 2.25528V6.45312C39.9644 6.51241 39.9436 6.5628 39.9021 6.60431C39.8665 6.64581 39.8161 6.66656 39.7509 6.66656H39.0127ZM38.9772 1.27697C38.9119 1.27697 38.8586 1.25918 38.8171 1.22361C38.7815 1.1821 38.7637 1.12874 38.7637 1.06352V0.423174C38.7637 0.363882 38.7815 0.313484 38.8171 0.27198C38.8586 0.230476 38.9119 0.209724 38.9772 0.209724H39.7865C39.8517 0.209724 39.9051 0.230476 39.9466 0.27198C39.9881 0.313484 40.0088 0.363882 40.0088 0.423174V1.06352C40.0088 1.12874 39.9881 1.1821 39.9466 1.22361C39.9051 1.25918 39.8517 1.27697 39.7865 1.27697H38.9772ZM42.8608 6.7555C42.5525 6.7555 42.2797 6.7051 42.0426 6.60431C41.8113 6.49758 41.6186 6.34936 41.4645 6.15962C41.3103 5.96989 41.1917 5.74755 41.1087 5.49259C41.0257 5.23171 40.9783 4.94711 40.9664 4.6388C40.9605 4.53207 40.9575 4.43721 40.9575 4.3542C40.9575 4.26526 40.9605 4.16743 40.9664 4.0607C40.9783 3.76425 41.0228 3.48854 41.0998 3.23359C41.1828 2.97864 41.3014 2.75629 41.4556 2.56656C41.6157 2.3709 41.8113 2.2197 42.0426 2.11298C42.2797 2.00626 42.5525 1.95289 42.8608 1.95289C43.181 1.95289 43.4507 2.00922 43.6701 2.12187C43.8954 2.2286 44.0822 2.36793 44.2304 2.53988V0.565473C44.2304 0.506181 44.2482 0.455784 44.2838 0.41428C44.3253 0.372776 44.3787 0.352024 44.4439 0.352024H45.1998C45.2591 0.352024 45.3095 0.372776 45.351 0.41428C45.3925 0.455784 45.4133 0.506181 45.4133 0.565473V6.45312C45.4133 6.51241 45.3925 6.5628 45.351 6.60431C45.3095 6.64581 45.2591 6.66656 45.1998 6.66656H44.4972C44.432 6.66656 44.3787 6.64581 44.3372 6.60431C44.3016 6.5628 44.2838 6.51241 44.2838 6.45312V6.12405C44.1356 6.30785 43.9458 6.45904 43.7146 6.57763C43.4893 6.69621 43.2047 6.7555 42.8608 6.7555ZM43.1899 5.80387C43.4389 5.80387 43.6375 5.74755 43.7857 5.63489C43.934 5.52224 44.0437 5.37994 44.1148 5.20799C44.186 5.03012 44.2245 4.84928 44.2304 4.66548C44.2364 4.55875 44.2393 4.4461 44.2393 4.32752C44.2393 4.203 44.2364 4.08739 44.2304 3.98066C44.2245 3.80279 44.183 3.63381 44.1059 3.47372C44.0288 3.3077 43.9162 3.17133 43.768 3.06461C43.6197 2.95788 43.427 2.90452 43.1899 2.90452C42.9408 2.90452 42.7422 2.96085 42.594 3.0735C42.4517 3.18023 42.3479 3.32253 42.2827 3.5004C42.2175 3.67828 42.1789 3.87394 42.1671 4.08739C42.1612 4.26526 42.1612 4.44313 42.1671 4.62101C42.1789 4.83446 42.2175 5.03012 42.2827 5.20799C42.3479 5.38587 42.4517 5.53113 42.594 5.64379C42.7422 5.75051 42.9408 5.80387 43.1899 5.80387Z" fill="white"/>
</svg>
