<svg width="34" height="18" viewBox="0 0 34 18" fill="none" xmlns="http://www.w3.org/2000/svg">
<rect width="34" height="18" rx="2" fill="#0FAB44"/>
<path d="M14.1641 12H12.9844V7.70703L11.6523 8.10938V7.15625L14.043 6.30469H14.1641V12ZM16.0859 11.418C16.0859 11.2409 16.1458 11.0924 16.2656 10.9727C16.388 10.8529 16.5482 10.793 16.7461 10.793C16.9492 10.793 17.1107 10.8529 17.2305 10.9727C17.3503 11.0924 17.4102 11.2409 17.4102 11.418C17.4102 11.5951 17.3503 11.7435 17.2305 11.8633C17.1107 11.9831 16.9492 12.043 16.7461 12.043C16.5482 12.043 16.388 11.9831 16.2656 11.8633C16.1458 11.7435 16.0859 11.5951 16.0859 11.418ZM22.2578 12H18.3398V11.1953L20.1758 9.24219C20.3581 9.04427 20.5013 8.87109 20.6055 8.72266C20.7122 8.57161 20.7878 8.4349 20.832 8.3125C20.8763 8.1901 20.8984 8.07552 20.8984 7.96875C20.8984 7.72135 20.8372 7.52865 20.7148 7.39062C20.5951 7.25 20.4219 7.17969 20.1953 7.17969C20.026 7.17969 19.8828 7.22135 19.7656 7.30469C19.6484 7.38542 19.5586 7.49609 19.4961 7.63672C19.4362 7.77474 19.4062 7.93359 19.4062 8.11328H18.2266C18.2266 7.76953 18.3073 7.45573 18.4688 7.17188C18.6302 6.88542 18.8594 6.65755 19.1562 6.48828C19.4557 6.31641 19.8099 6.23047 20.2188 6.23047C20.8255 6.23047 21.2878 6.375 21.6055 6.66406C21.9232 6.95312 22.082 7.35026 22.082 7.85547C22.082 8.11328 22.0299 8.35938 21.9258 8.59375C21.8216 8.82812 21.6732 9.0638 21.4805 9.30078C21.2904 9.53776 21.0664 9.79036 20.8086 10.0586L19.8633 11.0508H22.2578V12ZM22.9297 7.40625C22.9297 7.1901 22.9766 6.99349 23.0703 6.81641C23.1667 6.63932 23.306 6.4974 23.4883 6.39062C23.6732 6.28385 23.901 6.23047 24.1719 6.23047C24.4479 6.23047 24.6784 6.28385 24.8633 6.39062C25.0482 6.4974 25.1862 6.63932 25.2773 6.81641C25.3711 6.99349 25.418 7.1901 25.418 7.40625V7.70703C25.418 7.91797 25.3711 8.11198 25.2773 8.28906C25.1862 8.46615 25.0482 8.60807 24.8633 8.71484C24.681 8.82161 24.4531 8.875 24.1797 8.875C23.9062 8.875 23.6771 8.82161 23.4922 8.71484C23.3073 8.60807 23.1667 8.46615 23.0703 8.28906C22.9766 8.11198 22.9297 7.91797 22.9297 7.70703V7.40625ZM23.707 7.70703C23.707 7.79297 23.724 7.8737 23.7578 7.94922C23.7943 8.02214 23.8477 8.08203 23.918 8.12891C23.9883 8.17578 24.0755 8.19922 24.1797 8.19922C24.2839 8.19922 24.3698 8.17578 24.4375 8.12891C24.5052 8.08203 24.5547 8.02214 24.5859 7.94922C24.6198 7.8737 24.6367 7.79297 24.6367 7.70703V7.40625C24.6367 7.31771 24.6198 7.23568 24.5859 7.16016C24.5521 7.08464 24.5 7.02344 24.4297 6.97656C24.362 6.92969 24.276 6.90625 24.1719 6.90625C24.0703 6.90625 23.9844 6.92969 23.9141 6.97656C23.8464 7.02344 23.7943 7.08464 23.7578 7.16016C23.724 7.23568 23.707 7.31771 23.707 7.40625V7.70703ZM25.6406 10.6055C25.6406 10.3919 25.6875 10.1966 25.7812 10.0195C25.8776 9.84245 26.0182 9.70052 26.2031 9.59375C26.388 9.48698 26.6159 9.43359 26.8867 9.43359C27.1628 9.43359 27.3919 9.48698 27.5742 9.59375C27.7591 9.70052 27.8984 9.84245 27.9922 10.0195C28.0859 10.1966 28.1328 10.3919 28.1328 10.6055V10.9062C28.1328 11.1198 28.0859 11.3151 27.9922 11.4922C27.901 11.6693 27.763 11.8112 27.5781 11.918C27.3958 12.0247 27.168 12.0781 26.8945 12.0781C26.6211 12.0781 26.3906 12.0247 26.2031 11.918C26.0182 11.8112 25.8776 11.6693 25.7812 11.4922C25.6875 11.3151 25.6406 11.1198 25.6406 10.9062V10.6055ZM26.4219 10.9062C26.4219 10.9948 26.4414 11.0768 26.4805 11.1523C26.5195 11.2253 26.5742 11.2852 26.6445 11.332C26.7174 11.3789 26.8008 11.4023 26.8945 11.4023C27.0169 11.4023 27.1107 11.3789 27.1758 11.332C27.2435 11.2852 27.2891 11.2253 27.3125 11.1523C27.3385 11.0768 27.3516 10.9948 27.3516 10.9062V10.6055C27.3516 10.4753 27.3125 10.3607 27.2344 10.2617C27.1589 10.1602 27.043 10.1094 26.8867 10.1094C26.7305 10.1094 26.6133 10.1602 26.5352 10.2617C26.4596 10.3607 26.4219 10.4753 26.4219 10.6055V10.9062ZM24.4062 11.5781L23.8398 11.2734L26.6172 6.82812L27.1836 7.13281L24.4062 11.5781Z" fill="white"/>
<path d="M6.27319 4.73511C6.1269 4.58851 5.88946 4.58827 5.74286 4.73456L3.35393 7.1186C3.20733 7.2649 3.20709 7.50233 3.35339 7.64893C3.49968 7.79553 3.73712 7.79577 3.88372 7.64947L6.00721 5.53033L8.12635 7.65383C8.27265 7.80042 8.51009 7.80067 8.65668 7.65437C8.80328 7.50807 8.80352 7.27064 8.65723 7.12404L6.27319 4.73511ZM6.375 12.5593L6.38275 5.00039L5.63275 4.99962L5.625 12.5585L6.375 12.5593Z" fill="white"/>
</svg>
