<svg width="17" height="17" viewBox="0 0 17 17" fill="none" xmlns="http://www.w3.org/2000/svg">
<path d="M3.46305 2.1795C1.94721 2.1795 1.58232 1.85251 1.56527 1.42089C1.58224 1.11591 2.4249 0.871805 2.94805 0.871805H12.831C13.196 0.871805 13.5451 0.972074 13.848 1.15506C13.4871 0.470748 12.7852 0 12.0005 0H2.11758C0.963514 0 0 1.01144 0 2.22309V12.5974C0 12.6585 1.16628e-07 12.7196 0.00402415 12.7762C1.16628e-07 13.0682 0 13.334 0 13.5652C0.751796 16.2763 2.86121 16.7953 3.55867 16.8953C3.76226 16.9651 3.9739 17 4.19371 17H14.0766C15.2307 17 16.1942 15.9888 16.1942 14.7769V12.641H9.03138C7.08418 12.6149 6.5939 11.2768 6.5939 9.58976C6.5939 7.90274 7.13773 6.53845 9.08537 6.53845H16.1943V4.40259C16.1943 3.19087 15.2308 2.1795 14.0767 2.1795H3.46305ZM8.92757 7.41026C8.1758 7.41026 7.47427 8.38678 7.47427 9.58976C7.47427 10.7927 8.1758 11.7692 8.92757 11.7692H16.4018C16.7506 11.7692 17.0122 11.4161 16.9996 11.1154V8.09025C17.0122 7.79374 16.7506 7.41026 16.4018 7.41026H8.92757ZM8.67013 9.58976C8.67013 8.86609 9.27632 8.22965 9.96566 8.22965C10.6551 8.22965 11.2613 8.86609 11.2613 9.58976C11.2613 10.3134 10.6798 10.9237 9.99087 10.9237C9.30558 10.9236 8.67013 10.3134 8.67013 9.58976Z" fill="white"/>
</svg>
